<?xml version="1.0" encoding="UTF-8"?>
<svg width="24" height="24" viewBox="0 0 24 24" fill="none" xmlns="http://www.w3.org/2000/svg">
  <path d="M4.79805 7.5C4.79805 5.567 6.36505 4 8.29805 4H15.7021C17.6351 4 19.2021 5.567 19.2021 7.5V15.5C19.2021 17.433 17.6351 19 15.7021 19H10.6681L7.35405 21.747C6.86805 22.158 6.11305 21.8125 6.11305 21.165V19H4.79805C2.86505 19 1.29805 17.433 1.29805 15.5V7.5C1.29805 5.567 2.86505 4 4.79805 4" fill="#ffffff"/>
  <path d="M10.1 8.5H13.9C14.3 8.5 14.6 8.8 14.6 9.2C14.6 9.6 14.3 9.9 13.9 9.9H10.1C9.7 9.9 9.4 9.6 9.4 9.2C9.4 8.8 9.7 8.5 10.1 8.5ZM8.7 11.7H15.3C15.7 11.7 16 12 16 12.4C16 12.8 15.7 13.1 15.3 13.1H8.7C8.3 13.1 8 12.8 8 12.4C8 12 8.3 11.7 8.7 11.7Z" fill="#36393f"/>
</svg>
