<?xml version="1.0" encoding="UTF-8" standalone="no"?>
<svg width="48" height="48" viewBox="0 0 48 48" fill="none" xmlns="http://www.w3.org/2000/svg">
  <rect width="48" height="48" rx="24" fill="#5865F2"/>
  <path d="M32.2344 16.5938C30.7969 15.9531 29.2344 15.4844 27.5781 15.2031C27.5469 15.1875 27.5156 15.2031 27.5 15.2344C27.3125 15.6094 27.1094 16.0781 26.9688 16.4531C25.1875 16.1875 23.4219 16.1875 21.6719 16.4531C21.5313 16.0625 21.3125 15.6094 21.125 15.2344C21.1094 15.2031 21.0781 15.1875 21.0469 15.2031C19.3906 15.4844 17.8281 15.9531 16.3906 16.5938C16.375 16.5938 16.3594 16.6094 16.3438 16.625C12.5156 22.4219 11.4844 28.0625 11.9844 33.6406C12 33.6719 12.0156 33.7031 12.0469 33.7188C14.0156 35.1406 15.9219 36 17.7969 36.5781C17.8281 36.5938 17.8594 36.5781 17.875 36.5469C18.4375 35.7969 18.9375 35 19.375 34.1563C19.4063 34.0938 19.375 34.0313 19.3125 34.0156C18.625 33.75 17.9688 33.4375 17.3438 33.0781C17.2813 33.0469 17.2813 32.9531 17.3438 32.9063C17.4844 32.8125 17.625 32.7031 17.7656 32.5938C17.7969 32.5625 17.8438 32.5625 17.875 32.5781C22.5938 34.7031 27.75 34.7031 32.4219 32.5781C32.4531 32.5625 32.5 32.5625 32.5313 32.5938C32.6719 32.7031 32.8125 32.8125 32.9531 32.9063C33.0156 32.9375 33.0156 33.0469 32.9531 33.0781C32.3281 33.4531 31.6719 33.75 30.9844 34.0156C30.9219 34.0313 30.8906 34.0938 30.9219 34.1563C31.375 35 31.875 35.7969 32.4219 36.5469C32.4375 36.5781 32.4844 36.5938 32.5156 36.5781C34.4063 36 36.3125 35.1406 38.2813 33.7188C38.3125 33.7031 38.3281 33.6719 38.3281 33.6406C38.9219 27.1719 37.3125 21.5781 33.6563 16.625C33.6406 16.6094 33.625 16.5938 33.6094 16.5938H32.2344ZM19.9375 29.625C18.5156 29.625 17.3438 28.3125 17.3438 26.7188C17.3438 25.125 18.4844 23.8125 19.9375 23.8125C21.4063 23.8125 22.5625 25.1406 22.5469 26.7188C22.5469 28.3125 21.3906 29.625 19.9375 29.625ZM28.1094 29.625C26.6875 29.625 25.5156 28.3125 25.5156 26.7188C25.5156 25.125 26.6563 23.8125 28.1094 23.8125C29.5781 23.8125 30.7344 25.1406 30.7188 26.7188C30.7188 28.3125 29.5781 29.625 28.1094 29.625Z" fill="white"/>
</svg>
