<?xml version="1.0" encoding="UTF-8" standalone="no"?>
<svg width="96" height="96" viewBox="0 0 96 96" fill="none" xmlns="http://www.w3.org/2000/svg">
  <rect width="96" height="96" rx="12" fill="#7289DA"/>
  <path d="M38.5222 29.0181C43.5947 24.0787 51.5709 24.2212 56.5103 29.2937C61.4497 34.3661 61.3072 42.3423 56.2348 47.2817L38.5222 29.0181Z" fill="white"/>
  <path d="M38.5222 65.7555C43.5947 70.6949 51.5709 70.5524 56.5103 65.4799C61.4497 60.4075 61.3072 52.4313 56.2348 47.4919L38.5222 65.7555Z" fill="white"/>
  <path d="M67.0002 49.0003C67.0002 58.9413 58.9411 67.0005 49.0001 67.0005C39.0591 67.0005 31.0002 58.9415 31.0002 49.0003C31.0002 39.0593 39.0594 31.0002 49.0001 31.0002C58.9409 31.0002 67.0002 39.0593 67.0002 49.0003ZM61.0002 49.0003C61.0002 42.3729 55.6278 37.0005 49.0001 37.0005C42.3726 37.0005 37.0002 42.3726 37.0002 49.0003C37.0002 55.6281 42.3724 61.0005 49.0001 61.0005C55.6276 61.0005 61.0002 55.6281 61.0002 49.0003Z" fill="white"/>
  <path d="M72 29C72 31.2091 70.2091 33 68 33C65.7909 33 64 31.2091 64 29C64 26.7909 65.7909 25 68 25C70.2091 25 72 26.7909 72 29Z" fill="white"/>
</svg>
